<?xml version="1.0" encoding="UTF-8"?>
<svg xmlns="http://www.w3.org/2000/svg" xmlns:xlink="http://www.w3.org/1999/xlink" width="30px" height="30px" viewBox="0 0 30 30" version="1.1">
<g id="surface1">
<path style=" stroke:none;fill-rule:nonzero;fill:rgb(97.254902%,99.607843%,75.294118%);fill-opacity:1;" d="M 14.230469 1.113281 C 8.953125 1.113281 4.660156 5.40625 4.660156 10.683594 C 4.660156 15.761719 13.34375 27.632812 13.714844 28.132812 L 14.058594 28.601562 C 14.097656 28.660156 14.164062 28.691406 14.230469 28.691406 C 14.296875 28.691406 14.363281 28.660156 14.402344 28.601562 L 14.746094 28.132812 C 15.117188 27.632812 23.800781 15.761719 23.800781 10.683594 C 23.800781 5.40625 19.507812 1.113281 14.230469 1.113281 Z M 14.230469 7.257812 C 16.121094 7.257812 17.660156 8.792969 17.660156 10.683594 C 17.660156 12.574219 16.121094 14.113281 14.230469 14.113281 C 12.339844 14.113281 10.804688 12.574219 10.804688 10.683594 C 10.804688 8.792969 12.339844 7.257812 14.230469 7.257812 Z M 14.230469 7.257812 "/>
</g>
</svg>
